<svg width="200" height="200" viewBox="0 0 200 200" fill="none" xmlns="http://www.w3.org/2000/svg">
<path d="M100 100V200C44.7715 200 0 155.228 0 100H100Z" fill="#1F3857"/>
<path d="M100 100L100 -1.11288e-06C155.228 3.71534e-06 200 44.7715 200 100L100 100Z" fill="#E08D47"/>
<path d="M100 0C127.614 0 150 22.3858 150 50C150 77.6142 127.614 100 100 100V0Z" fill="#E6A53F"/>
<path d="M100 200C72.3858 200 50 177.614 50 150C50 122.386 72.3858 100 100 100L100 200Z" fill="#47779D"/>
<circle cx="149.5" cy="186.5" r="4.5" fill="#47779D"/>
<circle cx="186.5" cy="150.5" r="3.5" fill="#47779D"/>
<circle cx="12.5" cy="49.5" r="3.5" fill="#E6A53F"/>
<circle cx="49.5" cy="13.5" r="4.5" fill="#E6A53F"/>
</svg>
